<?xml version="1.0" encoding="utf-8"?>
<!-- Generator: Adobe Illustrator 15.1.0, SVG Export Plug-In . SVG Version: 6.00 Build 0)  -->
<!DOCTYPE svg PUBLIC "-//W3C//DTD SVG 1.1//EN" "http://www.w3.org/Graphics/SVG/1.1/DTD/svg11.dtd">
<svg version="1.1" id="Layer_1" xmlns="http://www.w3.org/2000/svg" xmlns:xlink="http://www.w3.org/1999/xlink" x="0px" y="0px"
	 width="750px" height="750px" viewBox="0 0 750 750" enable-background="new 0 0 750 750" xml:space="preserve">
<path fill="#FFFFFF" d="M684.274,416.918l1.386-0.557L510.199,7.152l-1.386,0.557l-0.902-1.159l-142.38,103.912L249.872,0
	l-1.054,1.033l-1.338-0.657L80.499,318.67l1.338,0.658l-1.092,0.996l15.213,15.619l-30.225-4.103l-0.2,1.377l-1.193,1.17
	l193.985,185.374l-31.153,103.806l1.44,0.404l-0.643,1.312L499.38,750l0.643-1.312l1.321,0.688l184.252-331.77L684.274,416.918
	L684.274,416.918z M307.134,367.539l137.247,18.629l53.479,358.182L265.61,505.896L307.134,367.539z M263.223,503.445
	L103.999,339.967l200.133,27.165L263.223,503.445z M680.417,415.274l-5.258-0.714l-0.052-0.28l-0.884,0.153l-215.651-29.271
	l-10.461-6.243l26.804-159.91L680.417,415.274z M475.505,215.492l33.944-202.513l170.594,397.858L475.505,215.492z M457.533,387.953
	l85.444,50.995l-43.184,298.06l-52.319-350.42L457.533,387.953z M447.321,383.635l0.271-1.616l3.582,2.138L447.321,383.635z
	 M545.095,436.8l-80.163-47.843l199.802,27.12L545.095,436.8z M445.349,377.27L325.21,305.569l-33.77-137.396l73.828-53.882
	l107.027,102.217L445.349,377.27z M324.784,308.727l120.045,71.645l-0.479,2.86l-136.37-18.51L324.784,308.727z M441.571,690.792
	L261.705,518.911l2.935-9.778L441.571,690.792z M545.911,439.608l128.37-22.235l7.475,1.015L502.123,741.84L545.911,439.608z
	 M506.735,11.044l-33.85,201.946L367.69,112.523L506.735,11.044z M290.682,165.089L251.488,5.624L363.11,112.229L290.682,165.089z
	 M288.067,166.998L86.108,314.392L248.305,5.219L288.067,166.998z M84.077,319.512l204.748-149.431l33.518,136.372l-17.365,57.862
	l-204.27-27.727L84.077,319.512z M69.556,335.292l29.693,4.03L262.252,506.68l-2.975,9.91L69.556,335.292z M492.67,743.703
	L230.409,623.19l30.344-101.109L492.67,743.703z"/>
</svg>
